<?xml version="1.0" encoding="utf-8"?>
<svg viewBox="25.708 33 136.047 137.463" xmlns="http://www.w3.org/2000/svg">
  <g transform="matrix(0.10000000149011612, 0, 0, -0.10000000149011612, 5.162524223327637, 187.2275390625)" fill="#000000" stroke="none">
    <path d="M700 1455 c-204 -66 -371 -229 -427 -419 -19 -63 -25 -104 -25 -186&#10;0 -186 61 -324 202 -452 108 -99 183 -134 331 -154 42 -5 47 -4 52 18 4 12 7&#10;44 7 69 0 44 2 47 31 53 56 11 57 11 64 -69 8 -87 7 -86 128 -60 193 41 365&#10;202 438 412 42 120 33 308 -20 428 -62 139 -196 274 -334 335 -129 57 -315 67&#10;-447 25z m329 -50 c74 -18 185 -73 246 -124 83 -68 165 -209 186 -319 18 -93&#10;7 -232 -25 -312 -28 -71 -113 -190 -161 -226 l-31 -23 1 102 c1 81 -2 104 -14&#10;114 -9 6 -20 9 -24 6 -5 -3 -7 -59 -6 -125 3 -108 2 -121 -15 -134 -26 -18&#10;-32 -12 -40 38 -21 127 -76 482 -76 489 0 5 14 9 30 9 l30 0 0 73 0 73 -45 12&#10;c-41 11 -45 15 -45 42 0 22 7 33 28 44 16 8 34 21 41 29 10 13 4 18 -41 33&#10;-28 9 -76 28 -105 41 -43 20 -53 29 -53 49 0 17 -5 24 -20 24 -14 0 -20 -7&#10;-20 -24 0 -19 -12 -28 -67 -53 -38 -17 -85 -36 -106 -43 -44 -14 -44 -29 1&#10;-50 32 -15 49 -47 39 -74 -3 -7 -26 -17 -51 -20 l-46 -7 0 -74 0 -73 30 -7&#10;c19 -4 30 -13 30 -23 0 -35 -78 -501 -86 -513 -9 -15 -81 34 -151 102 -50 49&#10;-75 84 -111 158 -44 90 -46 99 -50 200 -5 130 12 208 68 301 83 140 217 243&#10;370 284 72 19 209 20 289 1z m-169 -269 c0 -25 -16 -36 -57 -36 -20 0 -24 4&#10;-21 22 3 21 17 28 71 37 4 0 7 -10 7 -23z m130 -16 c0 -27 -1 -28 -32 -19 -18&#10;5 -34 9 -35 9 -2 0 -3 10 -3 23 0 20 4 23 35 19 31 -4 35 -8 35 -32z m-162&#10;-123 c3 -22 -1 -27 -17 -27 -17 0 -21 6 -21 31 0 24 4 30 18 27 10 -2 18 -14&#10;20 -31z m82 2 c0 -24 -4 -30 -17 -27 -11 2 -19 14 -21 31 -3 22 1 27 17 27 17&#10;0 21 -6 21 -31z m78 -2 c3 -22 -1 -27 -17 -27 -17 0 -21 6 -21 31 0 24 4 30&#10;18 27 10 -2 18 -14 20 -31z m-240 -4 c-2 -19 -10 -29 -30 -34 -26 -7 -28 -5&#10;-28 21 0 19 6 30 18 33 38 10 43 7 40 -20z m340 -7 c4 -36 -7 -46 -35 -35 -17&#10;6 -23 16 -23 39 0 28 3 31 28 28 21 -2 28 -9 30 -32z m-68 -164 c0 -4 -23 -23&#10;-50 -42 -27 -19 -50 -40 -50 -46 0 -7 29 -30 64 -53 59 -39 76 -57 76 -81 0&#10;-5 -34 -31 -76 -58 l-77 -50 29 -17 c96 -59 164 -106 164 -115 0 -15 -3 -14&#10;-115 50 -119 69 -101 70 -223 -12 -41 -28 -76 -47 -80 -43 -13 13 17 41 91 85&#10;42 25 76 48 77 52 0 4 -21 19 -47 34 -63 36 -93 63 -93 85 0 10 30 39 70 68&#10;39 28 70 53 70 55 0 2 -22 21 -50 42 -81 62 -63 77 23 19 28 -19 56 -35 62&#10;-35 5 1 35 18 65 39 50 35 70 42 70 23z" style="fill: rgb(255, 255, 255);"/>
    <path d="M440 835 l0 -165 26 0 27 0 -6 68 c-4 37 -7 111 -7 165 0 90 -1 97&#10;-20 97 -19 0 -20 -7 -20 -165z" style="fill: rgb(255, 255, 255);"/>
    <path d="M1296 992 c-3 -5 -5 -80 -3 -165 2 -141 4 -156 20 -161 10 -2 20 1&#10;23 8 2 6 3 81 2 166 -3 135 -5 155 -20 158 -9 2 -19 -1 -22 -6z" style="fill: rgb(255, 255, 255);"/>
    <path d="M375 938 c-3 -8 -4 -61 -3 -119 3 -96 4 -104 23 -104 19 0 20 7 20&#10;115 0 101 -2 115 -18 118 -9 2 -19 -3 -22 -10z" style="fill: rgb(255, 255, 255);"/>
    <path d="M512 942 c-21 -14 -12 -182 10 -196 26 -16 31 -2 19 52 -10 39 -9 56&#10;2 90 10 29 11 44 4 51 -13 13 -18 13 -35 3z" style="fill: rgb(255, 255, 255);"/>
    <path d="M1360 830 c0 -113 1 -120 20 -120 19 0 20 7 20 120 0 113 -1 120 -20&#10;120 -19 0 -20 -7 -20 -120z" style="fill: rgb(255, 255, 255);"/>
    <path d="M1225 930 c-3 -6 -1 -27 5 -46 11 -34 10 -68 -5 -120 -5 -16 -1 -23&#10;16 -27 14 -4 27 -1 31 6 9 14 9 119 -1 162 -6 30 -34 45 -46 25z" style="fill: rgb(255, 255, 255);"/>
    <path d="M811 663 c-39 -26 -71 -50 -71 -54 0 -10 124 -89 139 -89 8 0 47 21&#10;87 47 l74 47 -32 20 c-18 11 -52 32 -76 48 -24 15 -45 28 -46 28 -2 0 -36 -21&#10;-75 -47z" style="fill: rgb(255, 255, 255);"/>
  </g>
</svg>